<svg fill="none" xmlns="http://www.w3.org/2000/svg" viewBox="0 0 486 344"><path fill="#E5E5E5" d="M0 0h486v344H0z"/><g clip-path="url(#a)"><path fill="#fff" d="M0 0h486v344H0z"/><ellipse cx="230.5" cy="239" rx="121.5" ry="52" fill="#423B3B"/><path d="M368 72c0 23.507-3.66 46.783-10.771 68.5-7.111 21.718-17.534 41.45-30.673 58.072-13.14 16.622-28.739 29.807-45.906 38.802C263.482 246.37 245.082 251 226.5 251s-36.982-4.63-54.15-13.626c-17.167-8.995-32.766-22.18-45.906-38.802-13.139-16.622-23.562-36.354-30.673-58.072C88.66 118.783 85 95.507 85 72h283Z" fill="#C4C4C4"/><ellipse cx="226.5" cy="72.5" rx="141.5" ry="45.5" fill="#898484"/><ellipse cx="226" cy="72.5" rx="117" ry="37.5" fill="#5A2304"/><path d="M368.211 65.097c13.156.016 26.105 3.56 37.699 10.319 11.595 6.758 21.477 16.522 28.772 28.427 7.294 11.905 11.776 25.583 13.049 39.823 1.272 14.24-.705 28.602-5.756 41.814-5.05 13.212-13.019 24.866-23.2 33.93-10.18 9.064-22.259 15.259-35.166 18.034-12.906 2.776-26.243 2.047-38.827-2.121-12.585-4.169-24.029-11.648-33.32-21.776l12.032-13.053c7.317 7.976 16.331 13.867 26.242 17.15 9.911 3.283 20.415 3.857 30.58 1.671s19.678-7.064 27.696-14.203c8.018-7.139 14.294-16.317 18.272-26.723 3.978-10.406 5.535-21.717 4.533-32.932-1.002-11.215-4.532-21.988-10.277-31.364-5.745-9.376-13.529-17.066-22.66-22.39-9.132-5.322-19.33-8.113-29.691-8.126l.022-18.48Z" fill="#C4C4C4"/></g><defs><clipPath id="a"><path fill="#fff" d="M0 0h486v344H0z"/></clipPath></defs></svg>